<mxfile host="app.diagrams.net" agent="Mozilla/5.0 (Windows NT 10.0; Win64; x64) AppleWebKit/537.36 (KHTML, like Gecko) Chrome/131.0.0.0 Safari/537.36" version="25.0.3">
  <diagram name="Página-1" id="hfyRoZFEJj46qWysKRWd">
    <mxGraphModel dx="1247" dy="678" grid="1" gridSize="10" guides="1" tooltips="1" connect="1" arrows="1" fold="1" page="1" pageScale="1" pageWidth="1169" pageHeight="827" math="0" shadow="0">
      <root>
        <mxCell id="0" />
        <mxCell id="1" parent="0" />
        <mxCell id="xzqa_2isZWK1tbzvhBzf-8" style="edgeStyle=orthogonalEdgeStyle;rounded=0;orthogonalLoop=1;jettySize=auto;html=1;exitX=0.5;exitY=1;exitDx=0;exitDy=0;exitPerimeter=0;" edge="1" parent="1" source="xzqa_2isZWK1tbzvhBzf-1" target="xzqa_2isZWK1tbzvhBzf-3">
          <mxGeometry relative="1" as="geometry" />
        </mxCell>
        <mxCell id="xzqa_2isZWK1tbzvhBzf-1" value="INICIO" style="strokeWidth=2;html=1;shape=mxgraph.flowchart.start_1;whiteSpace=wrap;" vertex="1" parent="1">
          <mxGeometry x="500" y="40" width="100" height="60" as="geometry" />
        </mxCell>
        <mxCell id="xzqa_2isZWK1tbzvhBzf-2" value="" style="strokeWidth=1;html=1;shape=mxgraph.flowchart.start_1;whiteSpace=wrap;" vertex="1" parent="1">
          <mxGeometry x="540" y="910" width="20" height="20" as="geometry" />
        </mxCell>
        <mxCell id="xzqa_2isZWK1tbzvhBzf-3" value="NOME" style="html=1;strokeWidth=2;shape=manualInput;whiteSpace=wrap;rounded=1;size=26;arcSize=11;" vertex="1" parent="1">
          <mxGeometry x="500" y="120" width="100" height="60" as="geometry" />
        </mxCell>
        <mxCell id="xzqa_2isZWK1tbzvhBzf-10" style="edgeStyle=orthogonalEdgeStyle;rounded=0;orthogonalLoop=1;jettySize=auto;html=1;exitX=0.5;exitY=1;exitDx=0;exitDy=0;entryX=0.5;entryY=0;entryDx=0;entryDy=0;" edge="1" parent="1" source="xzqa_2isZWK1tbzvhBzf-4" target="xzqa_2isZWK1tbzvhBzf-5">
          <mxGeometry relative="1" as="geometry" />
        </mxCell>
        <mxCell id="xzqa_2isZWK1tbzvhBzf-4" value="NOTA1" style="html=1;strokeWidth=2;shape=manualInput;whiteSpace=wrap;rounded=1;size=26;arcSize=11;" vertex="1" parent="1">
          <mxGeometry x="500" y="200" width="100" height="60" as="geometry" />
        </mxCell>
        <mxCell id="xzqa_2isZWK1tbzvhBzf-11" style="edgeStyle=orthogonalEdgeStyle;rounded=0;orthogonalLoop=1;jettySize=auto;html=1;exitX=0.5;exitY=1;exitDx=0;exitDy=0;entryX=0.5;entryY=0;entryDx=0;entryDy=0;" edge="1" parent="1" source="xzqa_2isZWK1tbzvhBzf-5" target="xzqa_2isZWK1tbzvhBzf-6">
          <mxGeometry relative="1" as="geometry" />
        </mxCell>
        <mxCell id="xzqa_2isZWK1tbzvhBzf-5" value="NOTA2" style="html=1;strokeWidth=2;shape=manualInput;whiteSpace=wrap;rounded=1;size=26;arcSize=11;" vertex="1" parent="1">
          <mxGeometry x="500" y="290" width="100" height="60" as="geometry" />
        </mxCell>
        <mxCell id="xzqa_2isZWK1tbzvhBzf-12" style="edgeStyle=orthogonalEdgeStyle;rounded=0;orthogonalLoop=1;jettySize=auto;html=1;exitX=0.5;exitY=1;exitDx=0;exitDy=0;" edge="1" parent="1" source="xzqa_2isZWK1tbzvhBzf-6" target="xzqa_2isZWK1tbzvhBzf-7">
          <mxGeometry relative="1" as="geometry" />
        </mxCell>
        <mxCell id="xzqa_2isZWK1tbzvhBzf-6" value="MEDIA = (NOTA1 + NOTA2) / 2" style="rounded=1;whiteSpace=wrap;html=1;absoluteArcSize=1;arcSize=14;strokeWidth=2;" vertex="1" parent="1">
          <mxGeometry x="442.5" y="380" width="215" height="50" as="geometry" />
        </mxCell>
        <mxCell id="xzqa_2isZWK1tbzvhBzf-14" style="edgeStyle=orthogonalEdgeStyle;rounded=0;orthogonalLoop=1;jettySize=auto;html=1;" edge="1" parent="1" source="xzqa_2isZWK1tbzvhBzf-7" target="xzqa_2isZWK1tbzvhBzf-13">
          <mxGeometry relative="1" as="geometry" />
        </mxCell>
        <mxCell id="xzqa_2isZWK1tbzvhBzf-7" value="NOME&lt;br&gt;NOTA1&lt;div&gt;NOTA2&lt;/div&gt;&lt;div&gt;MEDIA&lt;/div&gt;" style="strokeWidth=2;html=1;shape=mxgraph.flowchart.display;whiteSpace=wrap;" vertex="1" parent="1">
          <mxGeometry x="470" y="460" width="160" height="80" as="geometry" />
        </mxCell>
        <mxCell id="xzqa_2isZWK1tbzvhBzf-9" style="edgeStyle=orthogonalEdgeStyle;rounded=0;orthogonalLoop=1;jettySize=auto;html=1;exitX=0.5;exitY=1;exitDx=0;exitDy=0;entryX=0.49;entryY=0.3;entryDx=0;entryDy=0;entryPerimeter=0;" edge="1" parent="1" source="xzqa_2isZWK1tbzvhBzf-3" target="xzqa_2isZWK1tbzvhBzf-4">
          <mxGeometry relative="1" as="geometry" />
        </mxCell>
        <mxCell id="xzqa_2isZWK1tbzvhBzf-13" value="MEDIA &amp;gt;= 7" style="strokeWidth=2;html=1;shape=mxgraph.flowchart.decision;whiteSpace=wrap;" vertex="1" parent="1">
          <mxGeometry x="500" y="570" width="100" height="100" as="geometry" />
        </mxCell>
        <mxCell id="xzqa_2isZWK1tbzvhBzf-15" value="APROVADO" style="strokeWidth=2;html=1;shape=mxgraph.flowchart.display;whiteSpace=wrap;" vertex="1" parent="1">
          <mxGeometry x="657.5" y="767" width="100" height="60" as="geometry" />
        </mxCell>
        <mxCell id="xzqa_2isZWK1tbzvhBzf-16" style="edgeStyle=orthogonalEdgeStyle;rounded=0;orthogonalLoop=1;jettySize=auto;html=1;entryX=0.5;entryY=0;entryDx=0;entryDy=0;entryPerimeter=0;" edge="1" parent="1" source="xzqa_2isZWK1tbzvhBzf-13" target="xzqa_2isZWK1tbzvhBzf-15">
          <mxGeometry relative="1" as="geometry" />
        </mxCell>
        <mxCell id="xzqa_2isZWK1tbzvhBzf-28" value="SIM" style="edgeLabel;html=1;align=center;verticalAlign=middle;resizable=0;points=[];" vertex="1" connectable="0" parent="xzqa_2isZWK1tbzvhBzf-16">
          <mxGeometry x="-0.6621" y="-3" relative="1" as="geometry">
            <mxPoint y="-3" as="offset" />
          </mxGeometry>
        </mxCell>
        <mxCell id="xzqa_2isZWK1tbzvhBzf-18" value="MEDIA &amp;gt;= 2" style="strokeWidth=2;html=1;shape=mxgraph.flowchart.decision;whiteSpace=wrap;" vertex="1" parent="1">
          <mxGeometry x="342.5" y="640" width="100" height="100" as="geometry" />
        </mxCell>
        <mxCell id="xzqa_2isZWK1tbzvhBzf-19" style="edgeStyle=orthogonalEdgeStyle;rounded=0;orthogonalLoop=1;jettySize=auto;html=1;entryX=0.445;entryY=0.01;entryDx=0;entryDy=0;entryPerimeter=0;" edge="1" parent="1" source="xzqa_2isZWK1tbzvhBzf-13" target="xzqa_2isZWK1tbzvhBzf-18">
          <mxGeometry relative="1" as="geometry" />
        </mxCell>
        <mxCell id="xzqa_2isZWK1tbzvhBzf-29" value="NÃO" style="edgeLabel;html=1;align=center;verticalAlign=middle;resizable=0;points=[];" vertex="1" connectable="0" parent="xzqa_2isZWK1tbzvhBzf-19">
          <mxGeometry x="-0.1493" y="-2" relative="1" as="geometry">
            <mxPoint as="offset" />
          </mxGeometry>
        </mxCell>
        <mxCell id="xzqa_2isZWK1tbzvhBzf-26" style="edgeStyle=orthogonalEdgeStyle;rounded=0;orthogonalLoop=1;jettySize=auto;html=1;entryX=1;entryY=0.5;entryDx=0;entryDy=0;entryPerimeter=0;" edge="1" parent="1" source="xzqa_2isZWK1tbzvhBzf-20" target="xzqa_2isZWK1tbzvhBzf-35">
          <mxGeometry relative="1" as="geometry">
            <Array as="points">
              <mxPoint x="550" y="860" />
            </Array>
          </mxGeometry>
        </mxCell>
        <mxCell id="xzqa_2isZWK1tbzvhBzf-20" value="RECUPERACAO" style="strokeWidth=2;html=1;shape=mxgraph.flowchart.display;whiteSpace=wrap;" vertex="1" parent="1">
          <mxGeometry x="495" y="767" width="110" height="60" as="geometry" />
        </mxCell>
        <mxCell id="xzqa_2isZWK1tbzvhBzf-21" value="REPROVADO" style="strokeWidth=2;html=1;shape=mxgraph.flowchart.display;whiteSpace=wrap;" vertex="1" parent="1">
          <mxGeometry x="210" y="767" width="110" height="60" as="geometry" />
        </mxCell>
        <mxCell id="xzqa_2isZWK1tbzvhBzf-22" style="edgeStyle=orthogonalEdgeStyle;rounded=0;orthogonalLoop=1;jettySize=auto;html=1;exitX=0.5;exitY=1;exitDx=0;exitDy=0;exitPerimeter=0;" edge="1" parent="1" source="xzqa_2isZWK1tbzvhBzf-21" target="xzqa_2isZWK1tbzvhBzf-21">
          <mxGeometry relative="1" as="geometry" />
        </mxCell>
        <mxCell id="xzqa_2isZWK1tbzvhBzf-23" style="edgeStyle=orthogonalEdgeStyle;rounded=0;orthogonalLoop=1;jettySize=auto;html=1;entryX=0.5;entryY=0;entryDx=0;entryDy=0;entryPerimeter=0;" edge="1" parent="1" source="xzqa_2isZWK1tbzvhBzf-18" target="xzqa_2isZWK1tbzvhBzf-21">
          <mxGeometry relative="1" as="geometry" />
        </mxCell>
        <mxCell id="xzqa_2isZWK1tbzvhBzf-31" value="NÃO" style="edgeLabel;html=1;align=center;verticalAlign=middle;resizable=0;points=[];" vertex="1" connectable="0" parent="xzqa_2isZWK1tbzvhBzf-23">
          <mxGeometry x="-0.4757" relative="1" as="geometry">
            <mxPoint x="1" as="offset" />
          </mxGeometry>
        </mxCell>
        <mxCell id="xzqa_2isZWK1tbzvhBzf-24" style="edgeStyle=orthogonalEdgeStyle;rounded=0;orthogonalLoop=1;jettySize=auto;html=1;entryX=0.5;entryY=0;entryDx=0;entryDy=0;entryPerimeter=0;" edge="1" parent="1" source="xzqa_2isZWK1tbzvhBzf-18" target="xzqa_2isZWK1tbzvhBzf-20">
          <mxGeometry relative="1" as="geometry" />
        </mxCell>
        <mxCell id="xzqa_2isZWK1tbzvhBzf-30" value="SIM" style="edgeLabel;html=1;align=center;verticalAlign=middle;resizable=0;points=[];" vertex="1" connectable="0" parent="xzqa_2isZWK1tbzvhBzf-24">
          <mxGeometry x="-0.6152" y="1" relative="1" as="geometry">
            <mxPoint x="1" as="offset" />
          </mxGeometry>
        </mxCell>
        <mxCell id="xzqa_2isZWK1tbzvhBzf-25" style="edgeStyle=orthogonalEdgeStyle;rounded=0;orthogonalLoop=1;jettySize=auto;html=1;entryX=0;entryY=0.5;entryDx=0;entryDy=0;entryPerimeter=0;" edge="1" parent="1" source="xzqa_2isZWK1tbzvhBzf-21" target="xzqa_2isZWK1tbzvhBzf-35">
          <mxGeometry relative="1" as="geometry">
            <Array as="points">
              <mxPoint x="265" y="860" />
            </Array>
          </mxGeometry>
        </mxCell>
        <mxCell id="xzqa_2isZWK1tbzvhBzf-27" style="edgeStyle=orthogonalEdgeStyle;rounded=0;orthogonalLoop=1;jettySize=auto;html=1;entryX=1;entryY=0.5;entryDx=0;entryDy=0;entryPerimeter=0;" edge="1" parent="1" source="xzqa_2isZWK1tbzvhBzf-15" target="xzqa_2isZWK1tbzvhBzf-2">
          <mxGeometry relative="1" as="geometry">
            <Array as="points">
              <mxPoint x="710" y="920" />
            </Array>
          </mxGeometry>
        </mxCell>
        <mxCell id="xzqa_2isZWK1tbzvhBzf-32" value="FIM" style="strokeWidth=2;html=1;shape=mxgraph.flowchart.start_1;whiteSpace=wrap;" vertex="1" parent="1">
          <mxGeometry x="500" y="960" width="100" height="60" as="geometry" />
        </mxCell>
        <mxCell id="xzqa_2isZWK1tbzvhBzf-33" style="edgeStyle=orthogonalEdgeStyle;rounded=0;orthogonalLoop=1;jettySize=auto;html=1;entryX=0.5;entryY=0;entryDx=0;entryDy=0;entryPerimeter=0;" edge="1" parent="1" source="xzqa_2isZWK1tbzvhBzf-2" target="xzqa_2isZWK1tbzvhBzf-32">
          <mxGeometry relative="1" as="geometry" />
        </mxCell>
        <mxCell id="xzqa_2isZWK1tbzvhBzf-35" value="" style="strokeWidth=1;html=1;shape=mxgraph.flowchart.start_1;whiteSpace=wrap;" vertex="1" parent="1">
          <mxGeometry x="382.5" y="850" width="20" height="20" as="geometry" />
        </mxCell>
        <mxCell id="xzqa_2isZWK1tbzvhBzf-37" style="edgeStyle=orthogonalEdgeStyle;rounded=0;orthogonalLoop=1;jettySize=auto;html=1;entryX=0;entryY=0.5;entryDx=0;entryDy=0;entryPerimeter=0;" edge="1" parent="1" source="xzqa_2isZWK1tbzvhBzf-35" target="xzqa_2isZWK1tbzvhBzf-2">
          <mxGeometry relative="1" as="geometry">
            <Array as="points">
              <mxPoint x="393" y="920" />
            </Array>
          </mxGeometry>
        </mxCell>
      </root>
    </mxGraphModel>
  </diagram>
</mxfile>
